<svg xmlns="http://www.w3.org/2000/svg" aria-hidden="true" style="position:absolute;width:0;height:0;overflow:hidden">
  <defs>
    <symbol id="icon-yogastudio" viewBox="0 0 108 32">
      <path
        d="M18.908 1.101c.478.237 1.015.919 1.375 1.321 3.094 3.456 4.716 7.858 4.429 12.491-.278 4.484-2.492 8.465-5.816 11.408-.629-.43-1.205-1.043-1.709-1.612-2.823-3.193-4.371-7.68-4.101-11.936.278-4.388 2.521-8.779 5.821-11.672z" />
      <path
        d="M32.075 7.376c.009.016.02.03.028.047.176.359.227.927.272 1.325.233 2.069.04 4.144-.688 6.104-1.818 4.895-6.021 8.499-10.669 10.635-.055-.001-.018.004-.102-.045.284-.465.68-.88 1.008-1.316.501-.682.955-1.396 1.359-2.139 1.424-2.62 2.104-5.5 2.102-8.471 0-.844-.02-1.687-.264-2.501.436-.484.97-.891 1.488-1.284 1.671-1.264 3.354-2.144 5.466-2.355zM5.684 7.397c.251.01.504.042.752.08 1.909.29 3.579 1.307 5.071 2.484.416.328.872.671 1.185 1.102-.793 4.074.259 8.345 2.365 11.868.336.56.7 1.103 1.089 1.628.186.25.407.477.574.74l-.059.077c-3.473-1.485-6.727-4.114-8.82-7.255-2.196-3.296-2.922-6.846-2.157-10.723z" />
      <path
        d="M35.472 16.487c.554-.066 1.795-.136 2.259.16.023.07.03.077.033.162.009.325-.203.811-.313 1.114a12.964 12.964 0 0 1-3.662 5.424c-3.259 2.881-7.483 3.915-11.749 3.641-.806-.084-1.636-.14-2.411-.387 3.574-1.099 6.974-3.345 9.437-6.15.606-.69 1.049-1.49 1.639-2.184 1.118-1.316 3.146-1.664 4.767-1.779zM1.327 16.596c1.666-.196 3.926.078 5.298 1.115.816.617 1.307 1.762 1.981 2.541a21.075 21.075 0 0 0 7.717 5.626c.632.271 1.283.553 1.952.718l-1.336.223c-3.891.56-7.924-.135-11.254-2.3C3.418 23.044 1.821 21.022.882 18.5c-.138-.37-.344-.771-.415-1.157a.665.665 0 0 1 .127-.564c.209-.154.481-.152.733-.183zM69.289 13.234c1.297-.011 2.712-.127 3.993.06.824.12 1.661.415 2.162 1.121.368.52.489 1.251.375 1.873-.14.761-.622 1.2-1.233 1.61.147.062.291.129.431.204a2.22 2.22 0 0 1 1.079 1.388c.216.806.043 1.636-.359 2.351a2.11 2.11 0 0 1-.316.371c-1.231 1.167-3.929.941-5.52.926-.306-.003-.709.025-.937-.207a.777.777 0 0 1-.085-.325c-.105-1.708-.009-3.481-.01-5.195-.001-1.214-.122-2.794.036-3.967.122-.153.2-.152.384-.209zm4.345 6.007c-.687-.448-1.844-.319-2.641-.317l.002 2.214c.884.006 1.916.143 2.7-.331.185-.272.37-.676.316-1.015-.039-.246-.173-.417-.377-.55zm-.328-3.936c-.655-.394-1.575-.294-2.312-.29v2.125c.791.006 1.734.123 2.425-.324.186-.266.365-.648.295-.984-.051-.247-.198-.401-.408-.527zM57.197 15.534c.198-.016.397-.006.591.031.593.119.883.556 1.2 1.021.018-.163.031-.339.069-.498a.501.501 0 0 1 .279-.348c.24-.127.754-.136 1.005-.043.183.068.387.227.45.419.187.567.114 6.116.006 6.875-.071.5-.226.993-.479 1.431-.407.707-1.099 1.168-1.876 1.379-1.096.296-2.343.202-3.321-.388-.436-.263-.641-.6-.756-1.087.037-.176.08-.347.231-.461.49-.37 1.549.251 2.092.352.468.087.973.039 1.363-.255.642-.484.748-1.379.857-2.116-.43.459-.838.829-1.471.984a2.586 2.586 0 0 1-2.029-.339c-.777-.515-1.211-1.399-1.37-2.296-.194-1.092-.025-2.399.638-3.314.632-.871 1.5-1.192 2.521-1.349zm.116 1.673c-.511.193-.794.429-1.012.939-.27.626-.278 1.533-.014 2.161.139.331.418.68.77.799.232.078.513.044.751.028.421-.15.66-.328.86-.736.307-.628.317-1.513.083-2.169-.136-.381-.405-.755-.786-.92a1.52 1.52 0 0 0-.651-.101zM99.652 15.593c.502-.067.996-.044 1.47.152.655.271.995.765 1.254 1.395.133-.333.279-.668.514-.944.372-.437.859-.611 1.422-.633.649-.025 1.314.124 1.791.59.313.307.505.718.61 1.139.279 1.121.123 3.53.127 4.797.001.194.025.807-.127.922-.258.194-1.172.151-1.494.106-.188-.026-.304-.127-.381-.297-.119-.262-.055-.73-.052-1.02.012-.94.244-3.537-.312-4.222a.722.722 0 0 0-.513-.27c-.299-.021-.68.082-.898.296-.771.755-.515 3.44-.509 4.496.002.213.009.446-.017.658-.012.094-.044.202-.13.251-.329.188-1.128.16-1.49.076-.189-.044-.269-.108-.337-.291-.112-.304-.049-.753-.044-1.074.017-.942.24-3.283-.239-3.989a.892.892 0 0 0-.61-.382c-.286-.047-.584-.009-.818.175-.937.74-.681 3.332-.676 4.403.001.257.054.626-.006.867-.024.1-.054.162-.14.218-.301.198-1.118.155-1.478.084-.152-.03-.248-.123-.314-.26-.092-.195-.12-5.828-.085-6.386a1.19 1.19 0 0 1 .113-.461.719.719 0 0 1 .433-.357c.446-.144 1.002.015 1.396.234.095.352.027.813.012 1.18.046-.094.093-.187.141-.279.348-.672.675-.946 1.385-1.172zM91.546 15.622a3.79 3.79 0 1 1 .158 7.578 3.79 3.79 0 0 1-.158-7.578zm-.255 1.649c-.557.248-.86.532-1.076 1.114-.258.696-.216 1.669.114 2.334.178.358.455.649.84.777.264.088.51.102.78.039.534-.224.854-.509 1.074-1.056.275-.686.272-1.604-.044-2.276-.198-.421-.55-.768-1.001-.901-.221-.065-.46-.051-.686-.03zM49.542 15.633a3.788 3.788 0 1 1 .34 7.57 3.788 3.788 0 0 1-.339-7.571zm.59 1.688c-.242-.083-.491-.082-.741-.05-.559.276-.879.565-1.092 1.176-.241.692-.206 1.68.142 2.33.19.355.477.614.865.733.238.073.508.079.75.021.533-.221.846-.508 1.06-1.055.272-.693.249-1.608-.065-2.285-.185-.398-.499-.726-.919-.87z" />
      <path
        d="M83.056 15.675a3.787 3.787 0 0 1 4.124 5.132 3.787 3.787 0 1 1-4.124-5.132zm.309 1.592c-.561.239-.884.51-1.111 1.091-.266.681-.24 1.625.075 2.288.19.399.514.728.941.864.214.068.457.067.677.04.56-.236.886-.501 1.118-1.082.269-.676.265-1.608-.049-2.269-.186-.392-.504-.723-.919-.87-.234-.083-.488-.082-.733-.061zM64.132 15.597a4 4 0 0 1 1.397.061c.709.164 1.303.577 1.665 1.213.193.34.305.715.359 1.101.083.598.13 4.376-.006 4.896-.114.146-.229.198-.406.236-.303.064-.967.103-1.212-.124-.214-.198-.17-.611-.173-.877-.355.525-.713.948-1.359 1.11-.722.18-1.391-.031-2.013-.39-.265-.244-.466-.494-.58-.84-.192-.584-.13-1.372.169-1.91.725-1.305 2.434-1.227 3.684-1.595l.078-.024c-.05-.156-.099-.316-.164-.466-.707-1.63-2.47.151-3.322-.297a.712.712 0 0 1-.34-.46c-.058-.248.009-.408.144-.614.458-.698 1.316-.874 2.08-1.02zm1.519 4.356c-.52.143-1.494.3-1.804.771a.586.586 0 0 0-.044.525c.046.119.137.224.216.322.537.036.873-.003 1.284-.376.249-.227.477-.591.465-.943-.003-.087-.028-.176-.048-.26l-.07-.04zM42.942 17c.186-.591 1.634-3.42 2.095-3.685.24-.138 1.519-.159 1.776-.041.165.076.183.12.257.274-.132.732-1.75 3.19-2.228 3.991l-.841 1.398c.003.84.151 3.406-.142 4.014a.71.71 0 0 1-.304.152c-.395.092-1.18.065-1.528-.154-.269-.355-.129-3.3-.128-3.951-.43-.687-3.204-5.116-3.131-5.539.092-.132.151-.165.299-.223.468-.014 1.419-.138 1.806.097.502.305 1.881 3.045 2.068 3.668zM77.294 13.234c.491-.013 1.294-.135 1.717.118.119.808.072 1.664.074 2.479l.005 3.776c0 .986.108 2.172-.019 3.14-.025.193-.144.256-.284.366-.511.017-1.298.143-1.719-.189-.099-.378-.161-9.095-.066-9.439.045-.163.153-.182.291-.252zM19.109 26.86c.677.241 1.358.433 2.068.549 1.224.198 2.645.14 3.744.778.812.471 1.643 1.573 1.872 2.487.042.168.03.181-.056.32-.85.306-1.675.233-2.52-.044-2.036-.666-4.112-2.15-5.109-4.09zM18.726 26.865c.043-.004.084.019.126.031-.002.019-.002.039-.006.059-.105.433-1.781 2.2-2.168 2.507-1.338 1.056-3.324 1.895-5.05 1.689-.046-.01-.11-.023-.152-.042-.093-.043-.152-.077-.176-.178-.065-.27.088-.583.211-.818.395-.756 1.014-1.642 1.79-2.051.956-.503 2.368-.501 3.43-.69.681-.121 1.336-.306 1.996-.507z" />
    </symbol>
    <symbol id="icon-burger" viewBox="0 0 43 32">
      <path
        d="M0 0h42.667v5.333h-42.667v-5.333zM0 13.333h42.667v5.333h-42.667v-5.333zM0 26.667h42.667v5.333h-42.667v-5.333z">
      </path>
    </symbol>
    <symbol id="icon-close" viewBox="0 0 32 32">
      <path
        d="M27.179.918 15.864 12.23 4.552.918.781 4.689l11.312 11.312L.781 27.313l3.771 3.771 11.312-11.312 11.315 11.312 3.771-3.771-11.312-11.312L30.95 4.689 27.179.918z" />
    </symbol>
    <symbol id="icon-linkedin" viewBox="0 0 32 32">
      <path
        d="M23.956.013H8.019C3.603.013 0 3.616 0 8.032v15.962c0 4.39 3.603 7.994 8.019 7.994h15.962c4.416 0 8.019-3.604 8.019-8.019V8.032C31.975 3.616 28.371.013 23.956.013zM10.658 25.897H6.09V12.701h4.568v13.196zM8.349 10.671c-1.294 0-2.335-1.04-2.335-2.335s1.04-2.335 2.335-2.335a2.329 2.329 0 0 1 2.335 2.335c-.025 1.294-1.066 2.335-2.335 2.335zM25.91 25.897h-3.832v-6.395c0-1.548-.203-3.527-2.309-3.527-2.157 0-2.512 1.675-2.512 3.426v6.496h-3.806V12.701h3.553v1.776h.102c.558-1.015 1.852-1.802 3.883-1.802 4.187 0 4.923 2.411 4.923 5.989v7.232z" />
    </symbol>
    <symbol id="icon-insta" viewBox="0 0 32 32">
      <path
        d="M21.356 2.667h-10.76a7.938 7.938 0 0 0-7.929 7.93v10.76a7.938 7.938 0 0 0 7.93 7.929h10.76a7.938 7.938 0 0 0 7.929-7.93v-10.76a7.938 7.938 0 0 0-7.93-7.929zm5.253 18.689a5.253 5.253 0 0 1-5.253 5.253h-10.76a5.253 5.253 0 0 1-5.252-5.253v-10.76a5.253 5.253 0 0 1 5.253-5.252h10.76a5.253 5.253 0 0 1 5.252 5.253v10.76z" />
      <path
        d="M15.976 9.092a6.894 6.894 0 0 0-6.883 6.883v.001a6.894 6.894 0 0 0 6.883 6.885h.001a6.893 6.893 0 0 0 6.885-6.885 6.894 6.894 0 0 0-6.886-6.883zm0 11.092a4.207 4.207 0 1 1 0-8.414 4.207 4.207 0 1 1 0 8.414zM24.524 9.144a1.649 1.649 0 1 1-3.297 0 1.649 1.649 0 0 1 3.297 0z" />
    </symbol>
    <symbol id="icon-facebook" viewBox="0 0 30 32">
      <path
        d="M30.476 15.701C30.476 7.234 23.654.37 15.238.37S0 7.234 0 15.701c0 7.652 5.572 13.995 12.857 15.145V20.133H8.988v-4.432h3.869v-3.378c0-3.842 2.275-5.965 5.756-5.965 1.667 0 3.411.299 3.411.299v3.773h-1.921c-1.893 0-2.483 1.182-2.483 2.394V15.7h4.226l-.675 4.432H17.62v10.713c7.285-1.15 12.857-7.493 12.857-15.145z" />
    </symbol>
    <symbol id="icon-tick" viewBox="0 0 44 32">
      <path
        d="M42.703 5.08 16.611 31.172a1.231 1.231 0 0 1-1.748 0L1.595 17.904a1.23 1.23 0 0 1 0-1.748l1.723-1.723a1.231 1.231 0 0 1 1.748 0l10.658 10.658L39.232 1.583a1.256 1.256 0 0 1 1.748 0l1.723 1.748a1.231 1.231 0 0 1 0 1.748z" />
    </symbol>
    <symbol id="icon-youtube" viewBox="0 0 45 32">
      <path
        d="M43.932 4.7A5.349 5.349 0 0 0 40.173.932C36.832.015 23.467 0 23.467 0S10.104-.015 6.761.862a5.466 5.466 0 0 0-3.768 3.793c-.881 3.341-.89 10.27-.89 10.27s-.009 6.963.866 10.27A5.345 5.345 0 0 0 6.73 28.96c3.375.917 16.704.932 16.704.932s13.365.015 16.706-.86a5.366 5.366 0 0 0 3.769-3.761c.883-3.339.89-10.266.89-10.266s.043-6.965-.868-10.306zM19.191 21.344l.011-12.8 11.108 6.411-11.119 6.389z" />
    </symbol>
    <symbol id="icon-check" viewBox="0 0 31 32">
      <path
        d="M26.045 10.322 12.477 23.89a.64.64 0 0 1-.908 0L4.67 16.991a.64.64 0 0 1 0-.908l.896-.896a.64.64 0 0 1 .908 0l5.542 5.542L24.24 8.505a.654.654 0 0 1 .909 0l.896.909a.64.64 0 0 1 0 .908z" />
    </symbol>
  </defs>
</svg>